<?xml version="1.0" encoding="UTF-8" standalone="no"?>
<!-- Created with Inkscape (http://www.inkscape.org/) -->

<svg
   width="30.320049mm"
   height="30.320049mm"
   viewBox="0 0 30.32005 30.320048"
   version="1.1"
   id="svg5"
   xml:space="preserve"
   sodipodi:docname="favicon.svg"
   inkscape:version="1.2.2 (732a01da63, 2022-12-09, custom)"
   xmlns:inkscape="http://www.inkscape.org/namespaces/inkscape"
   xmlns:sodipodi="http://sodipodi.sourceforge.net/DTD/sodipodi-0.dtd"
   xmlns:xlink="http://www.w3.org/1999/xlink"
   xmlns="http://www.w3.org/2000/svg"
   xmlns:svg="http://www.w3.org/2000/svg"><sodipodi:namedview
     id="namedview7"
     pagecolor="#ffffff"
     bordercolor="#666666"
     borderopacity="1.0"
     inkscape:showpageshadow="2"
     inkscape:pageopacity="0.0"
     inkscape:pagecheckerboard="0"
     inkscape:deskcolor="#d1d1d1"
     inkscape:document-units="mm"
     showgrid="false"
     inkscape:zoom="2.3987665"
     inkscape:cx="52.526997"
     inkscape:cy="88.378756"
     inkscape:window-width="1366"
     inkscape:window-height="731"
     inkscape:window-x="0"
     inkscape:window-y="0"
     inkscape:window-maximized="1"
     inkscape:current-layer="path4280" /><defs
     id="defs2"><linearGradient
       inkscape:collect="always"
       id="linearGradient1287"><stop
         style="stop-color:#9e29c8;stop-opacity:1;"
         offset="0"
         id="stop1283" /><stop
         style="stop-color:#00db8c;stop-opacity:1;"
         offset="1"
         id="stop1285" /></linearGradient><linearGradient
       inkscape:collect="always"
       xlink:href="#linearGradient1287"
       id="linearGradient1289"
       x1="122.51603"
       y1="86.080093"
       x2="160.7244"
       y2="82.008575"
       gradientUnits="userSpaceOnUse" /></defs><g
     inkscape:label="Layer 1"
     inkscape:groupmode="layer"
     id="layer1"
     transform="translate(-128.30218,-66.848551)"><circle
       style="opacity:1;fill:url(#linearGradient1289);stroke-width:3.565;stroke-linecap:square;stroke-linejoin:round;paint-order:fill markers stroke;fill-opacity:1"
       id="path704"
       cx="143.4622"
       cy="82.008575"
       r="15.160025" /><g
       aria-label="DL"
       id="text600"
       style="font-size:18.4656px;line-height:1.25;font-family:Courier;-inkscape-font-specification:Courier;fill:#ffffff;stroke:#fdfdfd;stroke-width:0.962"><g
         id="path4278"><path
           id="path4285"
           style="color:#000000;-inkscape-font-specification:sanchez;stroke:none;-inkscape-stroke:none"
           d="M 132.6213 74.566426 C 132.46727 74.566426 132.26568 74.613524 132.11538 74.76383 C 131.96508 74.914136 131.91798 75.115717 131.91798 75.269742 L 131.91798 76.21077 C 131.91798 76.364797 131.96512 76.566377 132.11538 76.716683 C 132.26569 76.866987 132.46727 76.914086 132.6213 76.914086 L 133.56232 76.914086 L 133.56232 86.439603 L 132.6213 86.439603 C 132.46727 86.439603 132.26569 86.486185 132.11538 86.63649 C 131.96508 86.786795 131.91798 86.988377 131.91798 87.142403 L 131.91798 88.083947 C 131.91798 88.237974 131.96512 88.439554 132.11538 88.58986 C 132.26569 88.740164 132.46727 88.787264 132.6213 88.787264 L 137.92175 88.787264 C 139.97591 88.787264 141.67971 88.147155 142.91989 86.866967 L 142.92196 86.865417 C 144.16226 85.571773 144.77353 83.803103 144.77353 81.657983 C 144.77353 79.50914 144.12485 77.743778 142.81861 76.476387 C 141.51521 75.199587 139.7438 74.566426 137.60756 74.566426 L 132.6213 74.566426 z M 136.13064 76.914086 L 137.42204 76.914086 C 139.03374 76.914086 140.1643 77.338343 140.93138 78.148636 L 140.93345 78.150187 L 140.93552 78.150187 C 141.72201 78.969455 142.13079 80.118801 142.13079 81.69519 C 142.13079 83.345488 141.72864 84.502423 140.98461 85.25983 C 140.24127 86.016544 139.10608 86.427155 137.47836 86.439603 L 136.13116 86.439603 L 136.13064 76.914086 z " /></g><g
         id="path4280"><path
           id="path4291"
           style="color:#000000;-inkscape-font-specification:sanchez;stroke:none;-inkscape-stroke:none"
           d="M 145.713 74.566426 C 145.55898 74.566426 145.36454 74.604544 145.20709 74.749877 C 145.04964 74.89521 144.99212 75.109031 144.99212 75.269742 L 144.99212 76.21077 C 144.99212 76.371483 145.04965 76.585302 145.20709 76.730635 C 145.36454 76.875967 145.55898 76.914086 145.713 76.914086 L 146.63698 76.914086 L 146.63698 86.439603 L 145.713 86.439603 C 145.55898 86.439603 145.36454 86.477721 145.20709 86.623055 C 145.04964 86.768386 144.99212 86.981691 144.99212 87.142403 L 144.99212 88.083947 C 144.99212 88.244659 145.04965 88.457963 145.20709 88.603295 C 145.36454 88.748627 145.55898 88.787264 145.713 88.787264 L 155.8142 88.787264 C 155.97439 88.787264 156.18068 88.739107 156.33406 88.585725 C 156.48744 88.432345 156.53508 88.22656 156.53508 88.066377 L 156.53508 85.111519 C 156.53508 84.957489 156.49006 84.75591 156.33975 84.605607 C 156.18945 84.455304 155.98631 84.408203 155.83228 84.408203 L 154.83596 84.408203 C 154.68194 84.408203 154.48749 84.44632 154.33005 84.591654 C 154.1726 84.736989 154.11507 84.950811 154.11507 85.111519 L 154.11507 86.439603 L 149.2053 86.439603 L 149.2053 76.914086 L 150.1272 76.914086 C 150.28739 76.914086 150.49317 76.866446 150.64655 76.713065 C 150.79994 76.559685 150.84757 76.353387 150.84757 76.1932 L 150.84757 75.287312 C 150.84757 75.127127 150.79993 74.920827 150.64655 74.767447 C 150.49317 74.614068 150.28739 74.566426 150.1272 74.566426 L 145.713 74.566426 z " /></g></g></g></svg>
