<?xml version="1.0" encoding="UTF-8"?>
<svg width="202.27mm" height="202.27mm" version="1.1" viewBox="0 0 202.27 202.27" xmlns="http://www.w3.org/2000/svg" xmlns:xlink="http://www.w3.org/1999/xlink">
<defs>
<linearGradient id="c">
<stop stop-color="#c7053f" offset="0"/>
<stop stop-color="#f97f39" offset="1"/>
</linearGradient>
<linearGradient id="d">
<stop stop-color="#c8063f" offset="0"/>
<stop stop-color="#f97f39" offset="1"/>
</linearGradient>
<linearGradient id="b" x1="-96.747" x2="-80.859" y1="-78.544" y2="-78.619" gradientTransform="matrix(11.109 0 0 11.109 942.18 935.41)" gradientUnits="userSpaceOnUse" xlink:href="#d"/>
<linearGradient id="a" x1="-140.29" x2="-40.069" y1="62.844" y2="62.37" gradientTransform="matrix(1.7609 0 0 1.7609 114.45 -47.817)" gradientUnits="userSpaceOnUse" xlink:href="#c"/>
</defs>
<g transform="translate(145.47 38.29)">
<circle cx="-44.341" cy="62.844" r="101.13" fill="#0d0d0d" style="paint-order:fill markers stroke"/>
<g transform="translate(.000208 .014762)" fill="url(#b)" stroke="url(#a)" stroke-width="2.9393" aria-label="</>">
<g fill="url(#b)">
<g stroke="none">
<path d="m-131.11 64.61v-2.8331q0-2.0461 2.2035-2.9904l52.726-25.34q0.62957-0.15739 0.94435-0.15739 1.1017 0 1.1017 1.4165v6.7679q0 2.2035-2.0461 3.1478l-38.876 18.572 38.876 18.572q2.0461 0.78696 2.0461 2.9904v6.7679q0 1.4165-1.1017 1.4165-0.31478 0-0.94435-0.15739l-52.726-25.183q-2.2035-0.94435-2.2035-2.9904z" color="#000000" fill="url(#b)" style="-inkscape-stroke:none"/>
<path d="m-75.232 31.82c-0.4548 0-0.82516 0.08227-1.3008 0.20117l-0.14453 0.03516-52.803 25.379c-1.8222 0.78095-3.0957 2.4502-3.0957 4.3418v2.832c0 1.8916 1.2735 3.5608 3.0957 4.3418l-0.0547-0.02344 52.859 25.246 0.14258 0.03516c0.47562 0.11891 0.84598 0.20117 1.3008 0.20117 0.68218 0 1.5112-0.31099 1.9863-0.92188 0.47513-0.61088 0.58594-1.3022 0.58594-1.9648v-6.7676c0-1.9239-1.1953-3.6717-2.9883-4.3613l0.10547 0.04492-36.1-17.246 36.082-17.238c1.759-0.81183 2.9004-2.5566 2.9004-4.4805v-6.7695c0-0.66269-0.1108-1.354-0.58594-1.9648-0.47513-0.61088-1.3042-0.91992-1.9863-0.91992z" color="#000000" fill="url(#a)" style="-inkscape-stroke:none"/>
</g>
<g stroke="url(#a)">
<path d="m-33.111 12.346c-1.411-0.23517-2.803 0.99051-3.3555 2.3164l-0.03125 0.07031-28.475 95.309 0.09375-0.23829c-0.16601 0.33203-0.27148 0.7272-0.27148 1.1289 0 0.61971 0.27654 1.3982 0.8457 1.8535 0.56916 0.45533 1.211 0.55664 1.7988 0.55664h7.0547c0.71524 0 1.472-0.20178 2.0645-0.67578 0.5925-0.47401 0.95151-1.1557 1.125-1.8496l-0.01758 0.0644 28.439-95.189c0.12486-0.37457 0.19141-0.77148 0.19141-1.1699 0-0.60256-0.36535-1.3835-0.91797-1.752-0.55262-0.36841-1.0934-0.42383-1.6094-0.42383z" color="#000000" fill="url(#a)" stroke="none" style="-inkscape-stroke:none"/>
</g>
<g stroke="none">
<path d="m42.425 61.777v2.8331q0 2.0461-2.0461 2.9904l-52.726 25.183q-0.62957 0.15739-1.1017 0.15739-1.1017 0-1.1017-1.4165v-6.7679q0-2.2035 2.2035-2.9904l38.718-18.572-38.718-18.572q-2.2035-1.1017-2.2035-3.1478v-6.7679q0-1.4165 1.1017-1.4165 0.47218 0 1.1017 0.15739l52.726 25.34q2.0461 0.94435 2.0461 2.9904z" color="#000000" fill="url(#b)" style="-inkscape-stroke:none"/>
<path d="m-13.449 31.82c-0.68218 1e-6 -1.5112 0.30904-1.9863 0.91992-0.47513 0.61088-0.58594 1.3022-0.58594 1.9648v6.7695c0 1.8916 1.2211 3.5637 3.0156 4.4609l0.01172 0.0059 35.967 17.252-35.955 17.248 0.14062-0.05859c-1.8782 0.67077-3.1797 2.4142-3.1797 4.373v6.7676c0 0.66269 0.1108 1.354 0.58594 1.9648s1.3042 0.92188 1.9863 0.92188c0.47808 0 0.95345-0.07528 1.457-0.20117l0.14453-0.03516 52.842-25.238c1.7308-0.79881 2.9004-2.4722 2.9004-4.3262v-2.832c0-1.854-1.1696-3.5254-2.9004-4.3242l-52.84-25.396-0.14648-0.03516c-0.50358-0.1259-0.97895-0.20117-1.457-0.20117z" color="#000000" fill="url(#a)" style="-inkscape-stroke:none"/>
</g>
</g>
</g>
</g>
</svg>
