<?xml version="1.0" encoding="UTF-8" standalone="no"?>
<!-- Created with Inkscape (http://www.inkscape.org/) -->

<svg
   width="18.067139mm"
   height="19.276297mm"
   viewBox="0 0 18.067139 19.276296"
   version="1.1"
   id="svg5"
   xml:space="preserve"
   sodipodi:docname="github.svg"
   inkscape:version="1.2.2 (732a01da63, 2022-12-09, custom)"
   xmlns:inkscape="http://www.inkscape.org/namespaces/inkscape"
   xmlns:sodipodi="http://sodipodi.sourceforge.net/DTD/sodipodi-0.dtd"
   xmlns="http://www.w3.org/2000/svg"
   xmlns:svg="http://www.w3.org/2000/svg"><sodipodi:namedview
     id="namedview7"
     pagecolor="#ffffff"
     bordercolor="#666666"
     borderopacity="1.0"
     inkscape:showpageshadow="2"
     inkscape:pageopacity="0.0"
     inkscape:pagecheckerboard="0"
     inkscape:deskcolor="#d1d1d1"
     inkscape:document-units="mm"
     showgrid="false"
     inkscape:zoom="1.1993833"
     inkscape:cx="46.690664"
     inkscape:cy="-18.342761"
     inkscape:window-width="1366"
     inkscape:window-height="731"
     inkscape:window-x="0"
     inkscape:window-y="0"
     inkscape:window-maximized="1"
     inkscape:current-layer="layer1" /><defs
     id="defs2" /><g
     inkscape:label="Layer 1"
     inkscape:groupmode="layer"
     id="layer1"
     transform="translate(-133.82876,-73.790598)"><path
       style="fill:#f2f2f2;stroke-width:0.264583"
       d="m 139.8434,92.594013 c -0.0661,-0.192656 -0.0191,-0.507473 -0.0617,-0.944036 -0.0567,-0.580149 -0.21992,-0.801007 -0.60668,-0.820721 -0.29105,-0.01484 -0.85619,-0.0446 -1.25588,-0.06615 -0.94422,-0.0509 -4.31569,-3.241649 -4.07846,-3.859845 0.30777,-0.802042 1.29032,-0.440388 2.56222,0.943094 1.066,1.159518 1.39513,1.36058 2.27385,1.389063 0.99713,0.03232 1.0298,0.005 1.10763,-0.926672 0.0706,-0.844822 -0.003,-0.980871 -0.61379,-1.134157 -3.28669,-0.824908 -5.09971,-5.194629 -3.56164,-8.584238 0.29589,-0.652094 0.52336,-1.723342 0.52336,-2.464791 0,-1.810307 0.33202,-2.334962 1.47765,-2.334962 0.51143,0 1.31039,0.196774 1.77547,0.437276 1.18779,0.614226 6.76784,0.608696 8.18161,-0.0081 0.54103,-0.236041 1.395,-0.429166 1.89771,-0.429166 0.80988,0 0.94882,0.105442 1.21944,0.925448 0.16799,0.508996 0.27154,1.318866 0.23011,1.79971 -0.0414,0.480846 0.11816,1.284785 0.35463,1.786533 0.97045,2.059046 0.79894,4.853707 -0.40777,6.644338 -0.67228,0.997604 -2.12042,2.050254 -3.08719,2.244072 -0.65597,0.131509 -0.66145,0.156041 -0.66145,2.957399 V 92.9729 h -0.66146 c -0.64986,0 -0.66378,-0.0441 -0.79375,-2.513542 -0.0834,-1.584023 -0.27906,-2.739649 -0.52917,-3.124967 -0.35917,-0.553336 -0.35236,-0.644475 0.0717,-0.959257 0.25771,-0.191307 0.91255,-0.420714 1.45521,-0.509797 2.41916,-0.397118 3.60311,-1.922812 3.62117,-4.666396 0.009,-1.34915 -0.11147,-1.891913 -0.5584,-2.518439 -0.45797,-0.642001 -0.54204,-1.044183 -0.42861,-2.050521 0.16165,-1.434127 -0.0349,-1.535842 -1.51913,-0.785997 -1.36096,0.687586 -7.14549,0.644313 -8.71896,-0.06522 -1.31468,-0.592838 -1.60943,-0.347913 -1.40605,1.168383 0.0933,0.695915 -0.0277,1.231818 -0.42558,1.884521 -0.65605,1.076153 -0.74971,3.248353 -0.1971,4.570942 0.48479,1.160272 1.81728,2.236343 3.02033,2.43912 0.54142,0.09126 1.19276,0.22308 1.44742,0.292941 0.53729,0.147391 0.62043,1.151033 0.13552,1.635945 -0.18924,0.189238 -0.38472,1.355392 -0.46302,2.76224 -0.11389,2.046147 -0.20955,2.44884 -0.59934,2.523093 -0.2551,0.0486 -0.58674,-0.0052 -0.6528,-0.197837 z"
       id="path428"
       sodipodi:nodetypes="cccccsscccsscssccccsscscscccssccccsscscccc" /></g></svg>
