<?xml version="1.0" encoding="UTF-8" standalone="no"?>
<!-- Created with Inkscape (http://www.inkscape.org/) -->

<svg
   width="18.067139mm"
   height="19.276297mm"
   viewBox="0 0 18.067139 19.276296"
   version="1.1"
   id="svg5"
   xml:space="preserve"
   sodipodi:docname="globe.svg"
   inkscape:version="1.2.2 (732a01da63, 2022-12-09, custom)"
   xmlns:inkscape="http://www.inkscape.org/namespaces/inkscape"
   xmlns:sodipodi="http://sodipodi.sourceforge.net/DTD/sodipodi-0.dtd"
   xmlns="http://www.w3.org/2000/svg"
   xmlns:svg="http://www.w3.org/2000/svg"><sodipodi:namedview
     id="namedview7"
     pagecolor="#ffffff"
     bordercolor="#666666"
     borderopacity="1.0"
     inkscape:showpageshadow="2"
     inkscape:pageopacity="0.0"
     inkscape:pagecheckerboard="0"
     inkscape:deskcolor="#d1d1d1"
     inkscape:document-units="mm"
     showgrid="false"
     inkscape:zoom="2.3987666"
     inkscape:cx="69.202231"
     inkscape:cy="27.51414"
     inkscape:window-width="1366"
     inkscape:window-height="731"
     inkscape:window-x="0"
     inkscape:window-y="0"
     inkscape:window-maximized="1"
     inkscape:current-layer="layer1" /><defs
     id="defs2" /><g
     inkscape:label="Layer 1"
     inkscape:groupmode="layer"
     id="layer1"
     transform="translate(-133.82876,-73.790598)"><path
       style="fill:#f2f2f2;stroke-width:0.121528"
       d="m 141.33213,92.383809 c -2.8844,-0.525473 -5.34888,-2.407283 -6.60981,-5.047074 -2.40128,-5.027115 0.2279,-10.924315 5.60484,-12.571574 3.05361,-0.935492 6.62111,-0.01824 8.93726,2.297923 4.3496,4.34959 3.13492,11.75346 -2.37399,14.470293 -0.53473,0.263714 -1.30035,0.566053 -1.70141,0.671871 -0.85972,0.22684 -3.03825,0.327698 -3.85689,0.178561 z m -0.45736,-1.882299 c 0,-0.0305 -0.16316,-0.332134 -0.36258,-0.670345 -0.80523,-1.365678 -1.47182,-3.33855 -1.65519,-4.898828 l -0.0817,-0.694886 h -1.63458 -1.63458 l 0.0857,0.516496 c 0.31529,1.900583 1.60984,3.826338 3.3012,4.910834 0.79507,0.509794 1.98174,1.010829 1.98174,0.836729 z m 5.32686,-0.510874 c 1.9669,-0.94715 3.61607,-3.161523 3.9453,-5.297457 l 0.0702,-0.455728 h -1.61631 -1.61633 l -0.14828,0.941844 c -0.20927,1.329258 -0.91362,3.385423 -1.53049,4.467893 -0.60555,1.0626 -0.6011,1.064304 0.89587,0.343448 z m -2.28075,-1.289252 c 0.57601,-1.103387 0.90777,-2.014453 1.15267,-3.16545 0.3043,-1.430037 0.52828,-1.298483 -2.21087,-1.298483 h -2.38712 l 0.0773,0.739187 c 0.14717,1.407982 1.09883,3.774537 1.99508,4.961213 l 0.3126,0.413916 0.28376,-0.353153 c 0.15608,-0.194232 0.50555,-0.777987 0.77662,-1.29723 z m -5.02408,-6.98719 c 0.18583,-1.274948 0.77272,-3.031764 1.42859,-4.276301 0.29766,-0.564825 0.5228,-1.045347 0.50033,-1.067827 -0.0846,-0.08461 -1.32913,0.473146 -1.96884,0.882363 -1.6939,1.083573 -2.92262,2.939822 -3.27622,4.949421 l -0.0802,0.455728 h 1.62942 1.62941 z m 6.353,0.708277 c 0,-0.377837 -0.33274,-1.834791 -0.58478,-2.56059 -0.29063,-0.836904 -0.91487,-2.083673 -1.3903,-2.776769 -0.35306,-0.514695 -0.36897,-0.52293 -0.58684,-0.303817 -0.79396,0.798473 -1.94995,3.585742 -2.12355,5.120234 l -0.0856,0.756049 h 2.3855 c 2.27762,0 2.38551,-0.01062 2.38551,-0.235107 z m 4.89713,-0.220621 c -0.33899,-2.199178 -1.95744,-4.326362 -4.09911,-5.387608 -0.57288,-0.283873 -1.06985,-0.487885 -1.10437,-0.453357 -0.0345,0.03454 0.18079,0.522044 0.47848,1.08337 0.67395,1.27081 1.09593,2.519099 1.36509,4.038255 l 0.20821,1.175068 h 1.61097 1.61097 z"
       id="path4526" /></g></svg>
