<?xml version="1.0" encoding="UTF-8" standalone="no"?>
<!-- Created with Inkscape (http://www.inkscape.org/) -->

<svg
   width="18.415714mm"
   height="17.696022mm"
   viewBox="0 0 18.415714 17.696022"
   version="1.1"
   id="svg5"
   xml:space="preserve"
   inkscape:version="1.2.2 (732a01da63, 2022-12-09, custom)"
   sodipodi:docname="linkedin.svg"
   xmlns:inkscape="http://www.inkscape.org/namespaces/inkscape"
   xmlns:sodipodi="http://sodipodi.sourceforge.net/DTD/sodipodi-0.dtd"
   xmlns="http://www.w3.org/2000/svg"
   xmlns:svg="http://www.w3.org/2000/svg"><sodipodi:namedview
     id="namedview7"
     pagecolor="#ffffff"
     bordercolor="#666666"
     borderopacity="1.0"
     inkscape:showpageshadow="2"
     inkscape:pageopacity="0.0"
     inkscape:pagecheckerboard="0"
     inkscape:deskcolor="#d1d1d1"
     inkscape:document-units="mm"
     showgrid="false"
     inkscape:zoom="1.1993833"
     inkscape:cx="184.26137"
     inkscape:cy="66.700948"
     inkscape:window-width="1366"
     inkscape:window-height="731"
     inkscape:window-x="0"
     inkscape:window-y="0"
     inkscape:window-maximized="1"
     inkscape:current-layer="layer1" /><defs
     id="defs2" /><g
     inkscape:label="Layer 1"
     inkscape:groupmode="layer"
     id="layer1"
     transform="translate(-28.728306,-62.306711)"><g
       id="g457"
       transform="translate(-9.6334403,-11.94766)"><path
         id="path444"
         style="fill:#f2f2f2;stroke-width:0.264583"
         d="m 40.956673,74.254382 c -1.28255,-0.0037 -2.571419,0.948169 -2.571419,2.302702 0,0.948869 1.090185,2.349651 1.927014,2.475818 2.572175,0.3878 4.084565,-2.556468 2.168343,-4.221448 C 42.039,74.427745 41.498194,74.255939 40.956673,74.254382 Z m -0.05788,1.681551 c 0.874484,0 1.201562,0.671974 0.650606,1.335836 -0.175356,0.211291 -0.467962,0.383956 -0.650606,0.383956 -0.49008,0 -0.983033,-0.698371 -0.877983,-1.243852 0.06368,-0.33068 0.331285,-0.47594 0.877983,-0.47594 z" /><path
         id="path430"
         style="fill:#f2f2f2;stroke-width:0.264583"
         d="m 40.898796,80.038525 c -0.99267,0 -1.985548,0.10556 -2.196249,0.31626 -0.46289,0.462892 -0.450209,11.226173 0.01344,11.413257 0.691781,0.279141 4.066798,0.169634 4.378544,-0.14211 0.448762,-0.448763 0.448762,-10.822384 0,-11.271147 -0.210701,-0.2107 -1.203062,-0.31626 -2.195731,-0.31626 z m -0.926042,1.58595 h 0.926042 0.926041 V 85.9901 90.355725 H 40.898796 39.972754 V 85.9901 Z" /><path
         id="path434"
         style="fill:#f2f2f2;stroke-width:0.264583"
         d="m 51.057349,79.337276 c -1.455293,0.0081 -2.900726,0.55692 -3.995622,1.680518 -1.574963,1.616251 -1.797306,2.455307 -1.797306,6.772196 0,2.090471 0.0792,3.880009 0.176216,3.977018 0.31555,0.31555 4.197229,0.19475 4.533057,-0.141076 0.213952,-0.213953 0.31781,-1.424682 0.31781,-3.712435 0,-2.899042 0.06292,-3.41919 0.432532,-3.561023 0.23806,-0.09135 0.625014,-0.04541 0.859895,0.102319 0.34658,0.217974 0.452293,0.936679 0.559656,3.812687 l 0.132292,3.543453 h 2.248958 2.248959 v -4.388879 c 0,0 0.0668,-3.169827 -0.370004,-4.56613 -0.135371,-0.432731 -0.405143,-0.940511 -0.405143,-0.940511 -1.182242,-1.704683 -3.070209,-2.588507 -4.9413,-2.578137 z m -0.05271,1.518254 c 1.039635,-0.0038 2.096793,0.389758 2.962093,1.171505 1.283971,1.159989 1.616439,2.321675 1.616439,5.647717 v 2.680973 h -1.058334 -1.058333 v -3.151229 c 0,0 0.03373,-2.209513 -0.357601,-3.213757 -0.09346,-0.239834 -0.456303,-0.622701 -0.456303,-0.622701 -0.615757,-0.552784 -2.189554,-0.897599 -3.175517,0.08837 -0.765697,0.765732 -0.773079,0.803748 -0.773079,3.836458 v 3.062862 h -0.926042 -0.926041 v -3.187919 c 0,-3.513305 0.204998,-4.206671 1.585949,-5.368665 0.74584,-0.627583 1.649444,-0.940265 2.566769,-0.943611 z" /></g></g></svg>
