<?xml version="1.0" encoding="UTF-8" standalone="no"?>
<!-- Created with Inkscape (http://www.inkscape.org/) -->

<svg
   width="18.520834mm"
   height="15.143817mm"
   viewBox="0 0 18.520834 15.143817"
   version="1.1"
   id="svg5"
   xml:space="preserve"
   sodipodi:docname="mail.svg"
   inkscape:version="1.2.2 (732a01da63, 2022-12-09, custom)"
   xmlns:inkscape="http://www.inkscape.org/namespaces/inkscape"
   xmlns:sodipodi="http://sodipodi.sourceforge.net/DTD/sodipodi-0.dtd"
   xmlns="http://www.w3.org/2000/svg"
   xmlns:svg="http://www.w3.org/2000/svg"><sodipodi:namedview
     id="namedview7"
     pagecolor="#ffffff"
     bordercolor="#666666"
     borderopacity="1.0"
     inkscape:showpageshadow="2"
     inkscape:pageopacity="0.0"
     inkscape:pagecheckerboard="0"
     inkscape:deskcolor="#d1d1d1"
     inkscape:document-units="mm"
     showgrid="false"
     inkscape:zoom="1.1993833"
     inkscape:cx="19.176523"
     inkscape:cy="15.007713"
     inkscape:window-width="1366"
     inkscape:window-height="731"
     inkscape:window-x="0"
     inkscape:window-y="0"
     inkscape:window-maximized="1"
     inkscape:current-layer="layer1" /><defs
     id="defs2" /><g
     inkscape:label="Layer 1"
     inkscape:groupmode="layer"
     id="layer1"
     transform="translate(-72.384212,-75.935933)"><path
       id="path438"
       style="fill:#f2f2f2;stroke-width:0.264583"
       d="m 73.851306,75.935933 c 0,0 -0.857683,0.226801 -1.133264,0.522449 -0.229936,0.246679 -0.33383,0.945162 -0.33383,0.945162 v 6.051827 c 0,5.679195 0.03256,6.087591 0.529167,6.639388 0.291042,0.323389 0.767294,0.688375 1.058333,0.810803 0.291042,0.122429 3.890094,0.197892 7.997962,0.167432 l 7.468794,-0.05581 c 0,0 0.729701,-0.321318 0.974101,-0.565857 0.24441,-0.244537 0.492477,-0.901236 0.492477,-0.901236 v -6.073532 -6.073014 c 0,0 -0.265507,-0.761601 -0.510047,-1.00614 -0.24454,-0.244539 -0.957047,-0.461471 -0.957047,-0.461471 h -7.793323 z m 7.793323,1.5875 c 5.792177,0 7.408333,0.073 7.408333,0.334347 0,0.183851 -1.607348,1.463007 -3.571875,2.84272 -1.964527,1.379713 -3.690937,2.508891 -3.836458,2.508891 -0.475361,0 -7.408333,-5.008232 -7.408333,-5.351611 0,-0.261354 1.616153,-0.334347 7.408333,-0.334347 z m 7.65328,2.513542 c 0.319029,0 0.158988,8.882833 -0.165882,9.207707 -0.452589,0.452587 -14.522726,0.452587 -14.975313,0 -0.355026,-0.355026 -0.46932,-9.208757 -0.118856,-9.206157 0.109141,7.8e-4 1.805783,1.131112 3.770313,2.511992 1.964529,1.38088 3.701519,2.511728 3.860229,2.512508 0.158713,7.84e-4 1.906434,-1.130062 3.883484,-2.512508 1.977047,-1.382447 3.662625,-2.513542 3.746025,-2.513542 z" /></g></svg>
