<?xml version="1.0" encoding="UTF-8" standalone="no"?>
<!-- Created with Inkscape (http://www.inkscape.org/) -->

<svg
   width="18.067139mm"
   height="19.276297mm"
   viewBox="0 0 18.067139 19.276296"
   version="1.1"
   id="svg5"
   xml:space="preserve"
   sodipodi:docname="moon.svg"
   inkscape:version="1.2.2 (732a01da63, 2022-12-09, custom)"
   xmlns:inkscape="http://www.inkscape.org/namespaces/inkscape"
   xmlns:sodipodi="http://sodipodi.sourceforge.net/DTD/sodipodi-0.dtd"
   xmlns="http://www.w3.org/2000/svg"
   xmlns:svg="http://www.w3.org/2000/svg"><sodipodi:namedview
     id="namedview7"
     pagecolor="#ffffff"
     bordercolor="#666666"
     borderopacity="1.0"
     inkscape:showpageshadow="2"
     inkscape:pageopacity="0.0"
     inkscape:pagecheckerboard="0"
     inkscape:deskcolor="#d1d1d1"
     inkscape:document-units="mm"
     showgrid="false"
     inkscape:zoom="1.6961841"
     inkscape:cx="99.635409"
     inkscape:cy="69.567919"
     inkscape:window-width="1366"
     inkscape:window-height="731"
     inkscape:window-x="0"
     inkscape:window-y="0"
     inkscape:window-maximized="1"
     inkscape:current-layer="layer1" /><defs
     id="defs2" /><g
     inkscape:label="Layer 1"
     inkscape:groupmode="layer"
     id="layer1"
     transform="translate(-133.82876,-73.790598)"><path
       id="path4426"
       style="fill:#f2f2f2;stroke-width:0.48809;stroke-linecap:square;stroke-linejoin:round;paint-order:fill markers stroke"
       d="m 142.02248,74.388904 c -0.78537,-0.01409 -2.00412,0.326661 -3.29626,0.959354 -0.87967,0.430722 -1.37765,0.797365 -2.23176,1.643148 -0.92469,0.915666 -1.19605,1.291564 -1.70739,2.364172 -0.7783,1.632573 -0.96638,2.43662 -0.95805,4.094368 0.008,1.578816 0.26399,2.671695 0.95333,4.068147 0.56843,1.151546 1.96293,2.713574 3.09122,3.462488 0.88969,0.590535 2.41179,1.208989 3.42186,1.390134 1.20116,0.21542 3.17401,0.06454 4.36049,-0.333243 1.53415,-0.514355 2.3927,-1.053115 3.61482,-2.268735 0.91131,-0.90645 1.18872,-1.291785 1.69715,-2.358666 0.96332,-2.02141 1.19624,-3.539599 0.60672,-3.952521 -0.42988,-0.301094 -0.58575,-0.271071 -1.81017,0.349762 -0.94573,0.47954 -1.25212,0.567558 -2.1594,0.620079 -2.37224,0.137326 -4.28462,-1.008759 -5.31644,-3.186138 -0.3808,-0.803596 -0.41662,-0.995789 -0.41662,-2.242254 0,-1.342249 0.009,-1.38039 0.57053,-2.460919 0.62353,-1.199461 0.68458,-1.532598 0.34844,-1.904028 -0.14394,-0.159075 -0.41149,-0.238745 -0.76847,-0.245148 z m -1.76141,2.302295 c 0.0696,0.006 0.0627,0.06507 0.0117,0.199002 -0.0533,0.137731 -0.16417,0.710351 -0.24646,1.272673 -0.48068,3.284743 1.67225,6.657409 4.97559,7.794662 0.72669,0.250179 1.16708,0.307157 2.30754,0.298897 0.77525,-0.0056 1.58404,-0.0823 1.79732,-0.170424 0.21327,-0.08813 0.42333,-0.124648 0.4667,-0.08128 0.17903,0.179031 -0.7777,1.667296 -1.60619,2.498676 -1.79914,1.805453 -4.3746,2.522202 -6.88197,1.915301 -1.17188,-0.283652 -2.32516,-0.956001 -3.31802,-1.934704 -3.22083,-3.174918 -2.71618,-8.523368 1.04195,-11.043202 0.50365,-0.3377 1.06077,-0.656205 1.23806,-0.707652 0.10342,-0.03001 0.17272,-0.0455 0.21447,-0.04195 z" /></g></svg>
