<?xml version="1.0" encoding="UTF-8" standalone="no"?>
<!-- Created with Inkscape (http://www.inkscape.org/) -->

<svg
   width="18.430262mm"
   height="18.402723mm"
   viewBox="0 0 18.430262 18.402723"
   version="1.1"
   id="svg5"
   xml:space="preserve"
   sodipodi:docname="phone.svg"
   inkscape:version="1.2.2 (732a01da63, 2022-12-09, custom)"
   xmlns:inkscape="http://www.inkscape.org/namespaces/inkscape"
   xmlns:sodipodi="http://sodipodi.sourceforge.net/DTD/sodipodi-0.dtd"
   xmlns="http://www.w3.org/2000/svg"
   xmlns:svg="http://www.w3.org/2000/svg"><sodipodi:namedview
     id="namedview7"
     pagecolor="#ffffff"
     bordercolor="#666666"
     borderopacity="1.0"
     inkscape:showpageshadow="2"
     inkscape:pageopacity="0.0"
     inkscape:pagecheckerboard="0"
     inkscape:deskcolor="#d1d1d1"
     inkscape:document-units="mm"
     showgrid="false"
     inkscape:zoom="1.6961841"
     inkscape:cx="45.985575"
     inkscape:cy="46.575134"
     inkscape:window-width="1366"
     inkscape:window-height="731"
     inkscape:window-x="0"
     inkscape:window-y="0"
     inkscape:window-maximized="1"
     inkscape:current-layer="layer1" /><defs
     id="defs2" /><g
     inkscape:label="Layer 1"
     inkscape:groupmode="layer"
     id="layer1"
     transform="translate(-105.03605,-75.10652)"><path
       id="path302"
       style="fill:#f2f2f2;stroke-width:0.264583"
       d="m 108.75145,75.106584 c -3.56918,-0.0098 -4.30116,1.095604 -3.31298,5.003312 0.84449,3.339486 2.16695,5.614286 4.78575,8.233089 2.54703,2.547031 4.82967,3.903142 8.00727,4.757333 2.42558,0.652033 3.83664,0.529195 4.63899,-0.403593 0.50152,-0.583054 0.59583,-1.001147 0.59583,-2.6448 0,-3.146549 -0.36829,-3.60166 -3.50935,-4.337203 -1.86563,-0.436877 -2.44869,-0.368691 -3.35483,0.393774 l -0.81907,0.689364 -1.1622,-0.952397 c -0.63922,-0.523795 -1.53996,-1.429488 -2.00195,-2.012797 l -0.84026,-1.060917 0.68471,-0.81287 c 0.80996,-0.962591 0.83642,-1.613155 0.16744,-4.063835 -0.67396,-2.468956 -1.10804,-2.78086 -3.87935,-2.78846 z m -0.14263,1.581299 c 1.14873,0 1.92392,0.122894 2.08566,0.330729 0.14156,0.181901 0.41173,1.080975 0.60048,1.997811 l 0.34313,1.667082 -0.85524,0.882116 c -0.82671,0.852949 -0.84193,0.908554 -0.45476,1.657263 0.99279,1.919847 4.52837,5.106665 5.66529,5.106665 0.27584,0 0.78116,-0.297656 1.12293,-0.661458 0.34178,-0.363802 0.86842,-0.655973 1.17047,-0.649573 0.84465,0.01796 3.02723,0.640814 3.33933,0.952914 0.15814,0.15812 0.24437,1.067929 0.19947,2.104264 l -0.0791,1.825728 -0.92604,0.05374 c -0.50932,0.02941 -1.64043,-0.155058 -2.51354,-0.409794 -5.65055,-1.648565 -10.39663,-6.737023 -11.53625,-12.368237 -0.47112,-2.327914 -0.35231,-2.489254 1.83813,-2.489254 z" /></g></svg>
