<?xml version="1.0" encoding="UTF-8" standalone="no"?>
<!-- Created with Inkscape (http://www.inkscape.org/) -->

<svg
   width="18.067139mm"
   height="19.276297mm"
   viewBox="0 0 18.067139 19.276296"
   version="1.1"
   id="svg5"
   xml:space="preserve"
   sodipodi:docname="sun.svg"
   inkscape:version="1.2.2 (732a01da63, 2022-12-09, custom)"
   xmlns:inkscape="http://www.inkscape.org/namespaces/inkscape"
   xmlns:sodipodi="http://sodipodi.sourceforge.net/DTD/sodipodi-0.dtd"
   xmlns="http://www.w3.org/2000/svg"
   xmlns:svg="http://www.w3.org/2000/svg"><sodipodi:namedview
     id="namedview7"
     pagecolor="#ffffff"
     bordercolor="#666666"
     borderopacity="1.0"
     inkscape:showpageshadow="2"
     inkscape:pageopacity="0.0"
     inkscape:pagecheckerboard="0"
     inkscape:deskcolor="#d1d1d1"
     inkscape:document-units="mm"
     showgrid="false"
     inkscape:zoom="3.3923683"
     inkscape:cx="53.944615"
     inkscape:cy="38.321311"
     inkscape:window-width="1366"
     inkscape:window-height="731"
     inkscape:window-x="0"
     inkscape:window-y="0"
     inkscape:window-maximized="1"
     inkscape:current-layer="layer1" /><defs
     id="defs2" /><g
     inkscape:label="Layer 1"
     inkscape:groupmode="layer"
     id="layer1"
     transform="translate(-133.82876,-73.790598)"><g
       id="g4459"
       transform="matrix(0.42081635,0,0,0.42081635,102.42787,117.59208)"><path
         id="path4434"
         style="fill:#f2f2f2;stroke-width:0.962001;stroke-linecap:square;stroke-linejoin:round;paint-order:fill markers stroke"
         d="m 95.927198,-91.861306 c -4.235211,0.04325 -7.657935,2.281118 -9.554456,6.283854 -0.758518,1.600888 -0.83044,1.981143 -0.83044,4.398181 0,2.417038 0.07192,2.797293 0.83044,4.398181 1.399168,2.953037 3.375599,4.713171 6.574792,5.85649 2.109906,0.754029 5.344938,0.531954 7.595916,-0.521415 2.44753,-1.145319 3.98502,-2.647905 5.17746,-5.060673 0.94402,-1.910088 0.98806,-2.118696 0.98806,-4.672583 0,-2.553877 -0.044,-2.762515 -0.98806,-4.672583 -1.77706,-3.595656 -5.00836,-5.761422 -8.935884,-5.988782 -0.289356,-0.01675 -0.575482,-0.02355 -0.857828,-0.02067 z m 0.195336,3.577559 c 1.812974,-0.0019 3.625521,0.689777 5.011066,2.075326 1.38814,1.388138 2.00489,2.968162 1.99781,5.117 -0.007,2.102548 -0.55872,3.462139 -1.97042,4.855518 -1.443163,1.424418 -2.619218,1.903848 -4.903063,1.999877 -1.529918,0.0643 -2.232992,-0.03224 -3.06958,-0.422713 -4.492052,-2.096438 -5.566364,-8.053474 -2.08101,-11.53883 1.388471,-1.388469 3.202223,-2.084258 5.015197,-2.086178 z" /><path
         style="fill:#f2f2f2;stroke-width:0.962001;stroke-linecap:square;stroke-linejoin:round;paint-order:fill markers stroke"
         d="m 96.171628,-66.759412 c -1.474858,0 -1.766199,0.564594 -1.761649,3.414262 0.004,2.674504 0.07382,2.932298 0.921907,3.413229 0.67337,0.381843 0.833855,0.382995 1.538924,0.01188 0.896149,-0.471696 0.966154,-0.71627 0.970484,-3.379122 0.005,-2.82063 -0.304037,-3.460254 -1.669666,-3.460254 z"
         id="path4446" /><path
         style="fill:#f2f2f2;stroke-width:0.962001;stroke-linecap:square;stroke-linejoin:round;paint-order:fill markers stroke"
         d="m 107.54665,-71.521912 c -1.06421,0 -1.76372,0.68075 -1.76372,1.717208 0,0.694205 0.31979,1.150654 1.82624,2.605009 2.06153,1.990225 2.81395,2.206364 3.71089,1.066085 0.30161,-0.383426 0.54828,-0.930896 0.54828,-1.216463 0,-0.285564 -0.79344,-1.341099 -1.76319,-2.345594 -1.41239,-1.462985 -1.92115,-1.826245 -2.5585,-1.826245 z"
         id="path4444" /><path
         style="fill:#f2f2f2;stroke-width:0.962001;stroke-linecap:square;stroke-linejoin:round;paint-order:fill markers stroke"
         d="m 84.751137,-71.521912 c -0.69421,0 -1.150651,0.31979 -2.605009,1.826245 -1.990228,2.061518 -2.206364,2.813943 -1.066085,3.710885 0.38343,0.301604 0.930903,0.548287 1.216463,0.548287 0.28557,0 1.341104,-0.793443 2.345593,-1.7632 1.462989,-1.412392 1.826246,-1.921667 1.826246,-2.559017 0,-1.06421 -0.680749,-1.7632 -1.717208,-1.7632 z"
         id="path4442" /><path
         style="fill:#f2f2f2;stroke-width:0.962001;stroke-linecap:square;stroke-linejoin:round;paint-order:fill markers stroke"
         d="m 113.9571,-82.898992 c -2.76775,0 -3.41167,0.31589 -3.41167,1.6738 0,1.47486 0.56511,1.76619 3.41478,1.76165 1.39626,-0.002 2.66968,-0.0915 2.8298,-0.19844 0.97143,-0.64864 1.02818,-2.47891 0.0925,-2.97966 -0.26474,-0.14169 -1.58123,-0.25735 -2.92541,-0.25735 z"
         id="path4440" /><path
         style="fill:#f2f2f2;stroke-width:0.962001;stroke-linecap:square;stroke-linejoin:round;paint-order:fill markers stroke"
         d="m 78.27608,-82.898992 c -2.849717,0 -3.353125,0.20821 -3.605465,1.49345 -0.12521,0.63774 -0.03335,0.96249 0.393258,1.38906 0.489159,0.48916 0.867264,0.55707 3.115572,0.55707 2.009738,0 2.662689,-0.09433 3.042708,-0.43822 0.60288,-0.5456 0.627162,-1.87545 0.04599,-2.51767 -0.366609,-0.4051 -0.853567,-0.48369 -2.992065,-0.48369 z"
         id="path4438" /><path
         style="fill:#f2f2f2;stroke-width:0.962001;stroke-linecap:square;stroke-linejoin:round;paint-order:fill markers stroke"
         d="m 110.21056,-96.916742 c -0.63446,-0.01132 -1.39473,0.5428 -2.63498,1.77353 -1.40607,1.39531 -1.79265,1.94718 -1.79265,2.55902 0,1.04963 0.6863,1.7477 1.71772,1.7477 0.69421,0 1.15015,-0.32032 2.6045,-1.82676 1.92134,-1.99017 2.1333,-2.64009 1.18803,-3.64629 -0.36637,-0.38999 -0.70194,-0.60041 -1.08262,-0.6072 z"
         id="path4430" /><path
         style="fill:#f2f2f2;stroke-width:0.962001;stroke-linecap:square;stroke-linejoin:round;paint-order:fill markers stroke"
         d="m 81.984897,-96.923942 c -0.383558,-0.0088 -0.71773,0.17616 -1.072802,0.53124 -0.94686,0.94686 -0.683095,1.74368 1.234033,3.72949 1.476128,1.52898 1.904488,1.82676 2.630847,1.82676 0.596649,0 0.996269,-0.1837 1.279508,-0.58808 0.80297,-1.14639 0.536114,-1.8511 -1.414384,-3.73414 -1.241123,-1.19821 -2.017939,-1.75066 -2.657202,-1.76527 z"
         id="path4428" /><path
         style="fill:#f2f2f2;stroke-width:0.962001;stroke-linecap:square;stroke-linejoin:round;paint-order:fill markers stroke"
         d="m 96.052772,-102.71842 c -0.402979,-0.0364 -0.741024,0.12815 -1.117761,0.50488 -0.456209,0.45621 -0.529166,0.88159 -0.529166,3.087668 0,2.00974 0.09433,2.66269 0.438216,3.04271 0.545599,0.60289 1.875456,0.62716 2.517675,0.04599 0.40534,-0.36682 0.482948,-0.84985 0.479558,-2.97656 -0.004,-2.709668 -0.07294,-2.952698 -0.970484,-3.425118 -0.310878,-0.16363 -0.57625,-0.25772 -0.818038,-0.27957 z"
         id="path4424" /></g></g></svg>
