<?xml version="1.0" encoding="UTF-8" standalone="no"?>
<!-- Created with Inkscape (http://www.inkscape.org/) -->

<svg
   width="18.067139mm"
   height="19.276297mm"
   viewBox="0 0 18.067139 19.276296"
   version="1.1"
   id="svg5"
   xml:space="preserve"
   sodipodi:docname="translation.svg"
   inkscape:version="1.2.2 (732a01da63, 2022-12-09, custom)"
   xmlns:inkscape="http://www.inkscape.org/namespaces/inkscape"
   xmlns:sodipodi="http://sodipodi.sourceforge.net/DTD/sodipodi-0.dtd"
   xmlns="http://www.w3.org/2000/svg"
   xmlns:svg="http://www.w3.org/2000/svg"><sodipodi:namedview
     id="namedview7"
     pagecolor="#ffffff"
     bordercolor="#666666"
     borderopacity="1.0"
     inkscape:showpageshadow="2"
     inkscape:pageopacity="0.0"
     inkscape:pagecheckerboard="0"
     inkscape:deskcolor="#d1d1d1"
     inkscape:document-units="mm"
     showgrid="false"
     inkscape:zoom="3.3923683"
     inkscape:cx="14.444187"
     inkscape:cy="55.860681"
     inkscape:window-width="1366"
     inkscape:window-height="687"
     inkscape:window-x="0"
     inkscape:window-y="0"
     inkscape:window-maximized="1"
     inkscape:current-layer="layer1" /><defs
     id="defs2" /><g
     inkscape:label="Layer 1"
     inkscape:groupmode="layer"
     id="layer1"
     transform="translate(-133.82876,-73.790598)"><path
       style="fill:#f2f2f2;stroke:none;stroke-width:0.0446533;fill-opacity:1"
       d="m 151.8959,74.967462 c -0.78442,-1.104242 -2.80497,-0.714451 -3.97413,-0.714451 h -9.77904 c -1.26918,0 -2.87074,-0.298095 -3.78085,0.803757 -0.80197,0.970943 -0.4612,2.755279 -0.4612,3.929479 v 9.957657 c 0,1.064312 -0.22538,2.375998 0.58228,3.21485 0.19235,0.199778 0.50487,0.493955 0.80197,0.511951 0.27996,0.01701 0.50305,-0.380134 0.67155,-0.556423 0.57538,-0.60197 1.13158,-1.221532 1.69908,-1.83078 2.31147,-2.4816 4.64938,-4.942345 6.92481,-7.457083 2.39199,-2.643556 4.79495,-5.338107 7.31553,-7.858957 m -11.56517,2.857803 h 1.78613 c 0.29717,0 0.60844,-0.02983 0.84359,0.188659 0.43675,0.405719 0.11346,1.011082 -0.0588,1.463508 -0.47908,1.258327 -1.19353,2.363045 -1.99046,3.438294 0.40836,0.152268 1.07088,0.169504 1.3742,0.496008 0.40237,0.433092 0.1057,1.162009 -0.48113,1.195992 -0.44627,0.02583 -0.96858,-0.178793 -1.38425,-0.323112 -0.15598,-0.05416 -0.43403,-0.237198 -0.59943,-0.182497 -0.17651,0.05836 -0.33088,0.277117 -0.47225,0.393661 -0.46488,0.383307 -1.12847,1.06699 -1.74147,1.173712 -0.58438,0.101719 -1.05846,-0.529721 -0.75509,-1.056761 0.15276,-0.265466 0.46658,-0.413447 0.71043,-0.58179 0.3654,-0.252291 0.6882,-0.581206 1.07168,-0.802641 v -0.04465 c -0.55588,-0.409201 -1.11807,-1.396527 -1.15616,-2.0987 -0.0302,-0.555886 0.58045,-0.946468 1.06668,-0.659616 0.33708,0.198886 0.37732,0.600452 0.5311,0.927536 0.14003,0.297926 0.35718,0.535259 0.54075,0.803757 h 0.0447 l 1.78612,-2.902456 h -3.43829 c -0.44703,0 -1.10137,0.11976 -1.51821,-0.05483 -0.5538,-0.232018 -0.59719,-1.038767 -0.0446,-1.303828 0.23881,-0.11458 0.5466,-0.07024 0.80371,-0.07024 h 1.65217 c 0,-0.32963 -0.0776,-0.775046 0.0933,-1.071498 0.27917,-0.484344 1.02224,-0.462303 1.26533,0.04452 0.14066,0.293192 0.0702,0.70994 0.0702,1.026978 m 7.99292,10.895375 c 0.088,0.511456 0.37879,1.41698 0.76379,1.776571 0.35307,0.329808 0.94124,0.202412 1.16661,-0.214381 0.18343,-0.339095 0.0125,-0.745839 -0.11748,-1.071004 -0.29194,-0.730528 -0.59197,-1.457615 -0.88414,-2.188009 -0.29814,-0.745348 -0.60384,-1.487347 -0.90199,-2.232655 -0.1724,-0.431039 -0.32565,-0.87766 -0.52954,-1.294945 -0.38942,-0.797013 -1.50437,-1.095655 -2.02676,-0.223265 -0.37344,0.623581 -0.57706,1.38099 -0.84627,2.054046 -0.52834,1.320751 -1.0598,2.643156 -1.56174,3.974135 -0.20688,0.548564 -0.24091,1.36344 0.56151,1.381792 0.67194,0.01542 0.8627,-0.869085 1.04234,-1.381792 0.0565,-0.161291 0.11087,-0.438048 0.26501,-0.53459 0.20652,-0.129361 0.64395,-0.0459 0.88065,-0.0459 h 2.18801 m -1.56286,-4.286706 1.11633,3.125723 h -2.27732 l 0.68467,-1.920084 z"
       id="path466" /></g></svg>
